<svg width="24" height="24" viewBox="0 0 24 24" fill="none" xmlns="http://www.w3.org/2000/svg">
<path d="M17.863 13.44C19.34 15.02 20.229 17.24 20.495 19.9L20.605 21H3.39499L3.50499 19.9C3.77099 17.24 4.65999 15.02 6.13699 13.44C7.62699 11.85 9.64799 11 12 11C14.352 11 16.373 11.85 17.863 13.44ZM12 2C10.9391 2 9.92171 2.42143 9.17156 3.17157C8.42142 3.92172 7.99999 4.93913 7.99999 6C7.99999 7.06087 8.42142 8.07828 9.17156 8.82843C9.92171 9.57857 10.9391 10 12 10C13.0609 10 14.0783 9.57857 14.8284 8.82843C15.5786 8.07828 16 7.06087 16 6C16 4.93913 15.5786 3.92172 14.8284 3.17157C14.0783 2.42143 13.0609 2 12 2Z" fill="black"/>
</svg>
